<svg x="50%" y="50%" width="30" height="30" class="imagesvg-svg"><svg xmlns="http://www.w3.org/2000/svg" viewBox="0 0 55.63 56.69"><g style="isolation:isolate"><g><path d="M55.43 8.73a48 48 0 0 0-16.8-7.49A33.2 33.2 0 0 1 40.79 13a34.51 34.51 0 0 1-.29 4.34 33.4 33.4 0 0 1-12.68 22 33.15 33.15 0 0 0 14.81 6.51 48 48 0 0 0 13-32.85c0-1.43-.07-2.86-.2-4.27z" fill="#00b4ed"></path><path d="M27.82 14.85a33.08 33.08 0 0 1 12.68 2.51 34.51 34.51 0 0 0 .29-4.36 33.2 33.2 0 0 0-2.16-11.76A48.08 48.08 0 0 0 .2 8.73C.08 10.14 0 11.57 0 13a47.93 47.93 0 0 0 2.08 14 33.35 33.35 0 0 1 25.74-12.15z" fill="#0079c3"></path><path d="M27.82 39.4a33.36 33.36 0 0 1-12.68-22A33.33 33.33 0 0 0 2.08 27 48 48 0 0 0 13 45.91a48.46 48.46 0 0 0 14.82 10.78 48.46 48.46 0 0 0 14.81-10.78 33.15 33.15 0 0 1-14.81-6.51z" fill="#f39800"></path><path d="M15.17 17.56v-.2A33.33 33.33 0 0 0 2.08 27c.21.69.45 1.38.69 2.06a34.46 34.46 0 0 1 11.48-11z" fill="#898989" style="mix-blend-mode:multiply"></path><path d="M28 39.3l-.15.12a33.41 33.41 0 0 0 14.85 6.49c.5-.53 1-1.08 1.45-1.63a34.49 34.49 0 0 1-15.28-4.44z" fill="#9fa0a0" style="mix-blend-mode:multiply"></path><path d="M40.31 17.28l.19.08a33.61 33.61 0 0 0-1.83-16.14c-.67-.17-1.42-.3-2.14-.43a34.51 34.51 0 0 1 3.8 15.45c0 .34-.01.69-.02 1.04z" fill="#b5b5b6" style="mix-blend-mode:multiply"></path></g></g></svg></svg>