<svg data-v-21be7ea2="" version="1.0" xmlns="http://www.w3.org/2000/svg" xmlns:xlink="http://www.w3.org/1999/xlink" width="100%" height="100%" viewBox="0 0 220.000000 57.000000" preserveAspectRatio="xMidYMid meet" color-interpolation-filters="sRGB" class="el-tooltip" style="margin: auto;">  <g data-v-21be7ea2="" fill="#13ae67" class="icon-text-wrapper icon-svg-group iconsvg"><g class="iconsvg-imagesvg" transform="translate(0,0)"><rect fill="#13ae67" fill-opacity="0" stroke-width="2" x="0" y="0" width="49" height="56.18756698820982"></rect> <svg x="0" y="0" width="49" height="56.18756698820982" class="imagesvg-svg"><svg xmlns="http://www.w3.org/2000/svg" viewBox="0 0 65.31 74.89"><g><g><path fill="#0ca579" d="M0 49.83l22.62 13.62V32.54L0 49.83z"></path><path fill="#00ea90" d="M34.85 0v29.75L0 49.83V19.62L34.85 0z"></path><path fill="#c1c1c1" d="M65.31 25.07L42.7 11.45v30.9l22.61-17.28z"></path><path fill="#6b6b6b" d="M30.46 74.89V45.15l34.85-20.08v30.21L30.46 74.89z"></path></g></g></svg></svg> <!----></g> <g transform="translate(56,8.774721145629883)"><g class="tp-name iconsvg-namesvg" transform="translate(0,0)"><g><path d="M2.04-20.01L6.30-20.01L6.30 0L2.04 0L2.04-20.01ZM13.71 0L6.45-10.11L14.10-20.01L19.71-20.01L11.34-10.11L19.32 0L13.71 0ZM31.77 0L21.72 0L21.72-3.57L30.87-3.57Q33.06-3.57 33.78-3.99L33.78-3.99Q34.83-4.62 34.83-5.88L34.83-5.88Q34.83-7.35 33.60-8.01L33.60-8.01Q32.91-8.40 31.38-8.40L31.38-8.40L27.66-8.40Q24.27-8.40 22.77-9.63L22.77-9.63Q21.84-10.41 21.31-11.58Q20.79-12.75 20.79-14.10L20.79-14.10Q20.79-16.20 22.02-17.94L22.02-17.94Q23.22-19.62 25.86-19.92L25.86-19.92Q26.76-20.01 28.53-20.01L28.53-20.01L38.46-20.01L38.46-16.44L29.49-16.44Q27.48-16.41 26.82-16.26L26.82-16.26Q25.47-15.93 25.47-14.22L25.47-14.22Q25.47-12.78 26.61-12.30L26.61-12.30Q27.36-11.94 29.13-11.94L29.13-11.94L32.34-11.94Q34.80-11.94 36-11.52L36-11.52Q38.13-10.80 38.94-9L38.94-9Q39.57-7.56 39.57-5.91L39.57-5.91Q39.57-4.08 38.73-2.64L38.73-2.64Q37.56-0.60 35.22-0.18L35.22-0.18Q34.08 0 31.77 0L31.77 0ZM40.62-9.54L47.61-9.54L47.61-5.94L40.62-5.94L40.62-9.54ZM59.61 0L49.56 0L49.56-3.57L58.71-3.57Q60.90-3.57 61.62-3.99L61.62-3.99Q62.67-4.62 62.67-5.88L62.67-5.88Q62.67-7.35 61.44-8.01L61.44-8.01Q60.75-8.40 59.22-8.40L59.22-8.40L55.50-8.40Q52.11-8.40 50.61-9.63L50.61-9.63Q49.68-10.41 49.16-11.58Q48.63-12.75 48.63-14.10L48.63-14.10Q48.63-16.20 49.86-17.94L49.86-17.94Q51.06-19.62 53.70-19.92L53.70-19.92Q54.60-20.01 56.37-20.01L56.37-20.01L66.30-20.01L66.30-16.44L57.33-16.44Q55.32-16.41 54.66-16.26L54.66-16.26Q53.31-15.93 53.31-14.22L53.31-14.22Q53.31-12.78 54.45-12.30L54.45-12.30Q55.20-11.94 56.97-11.94L56.97-11.94L60.18-11.94Q62.64-11.94 63.84-11.52L63.84-11.52Q65.97-10.80 66.78-9L66.78-9Q67.41-7.56 67.41-5.91L67.41-5.91Q67.41-4.08 66.57-2.64L66.57-2.64Q65.40-0.60 63.06-0.18L63.06-0.18Q61.92 0 59.61 0L59.61 0ZM78.33-20.01L85.50-20.01L85.50-16.44L79.95-16.44Q77.79-16.44 76.80-16.14Q75.81-15.84 75.15-14.97L75.15-14.97Q74.70-14.37 74.53-13.77Q74.37-13.17 74.25-11.73L74.25-11.73L85.50-11.73L85.50-8.16L74.25-8.16Q74.49-5.58 75.78-4.58Q77.07-3.57 80.16-3.57L80.16-3.57L85.50-3.57L85.50 0L79.95 0Q77.70 0 75.99-0.27L75.99-0.27Q73.29-0.72 71.70-2.64L71.70-2.64Q69.42-5.40 69.42-10.11L69.42-10.11Q69.42-15.33 72.63-18.24L72.63-18.24Q73.74-19.23 74.98-19.62Q76.23-20.01 78.33-20.01L78.33-20.01ZM96.54-7.59L93.12-7.59L93.12 0L88.86 0L88.86-20.01L98.64-20.01Q102.84-20.01 104.49-18.93L104.49-18.93Q105.63-18.21 106.24-17.02Q106.86-15.84 106.86-14.43L106.86-14.43Q106.86-11.58 105.42-10.02L105.42-10.02Q104.52-9.09 103.05-8.61L103.05-8.61Q104.22-8.19 104.82-7.72Q105.42-7.26 105.90-6.36L105.90-6.36Q106.26-5.64 106.42-4.98Q106.59-4.32 106.68-3.03L106.68-3.03Q106.86-0.87 107.16 0L107.16 0L102.39 0Q102.18-0.69 101.94-2.85L101.94-2.85Q101.79-4.59 101.32-5.52Q100.86-6.45 99.93-6.99L99.93-6.99Q98.76-7.62 96.54-7.59L96.54-7.59ZM93.12-16.44L93.12-11.16L99.09-11.16Q100.59-11.16 101.22-11.61L101.22-11.61Q102.18-12.27 102.18-13.92L102.18-13.92Q102.18-15.75 100.74-16.26L100.74-16.26Q100.23-16.44 99.09-16.44L99.09-16.44L93.12-16.44ZM124.92-20.01L129.72-20.01L120.96 0L116.70 0L108.27-20.01L113.07-20.01L118.95-4.95L124.92-20.01ZM139.65-20.01L146.82-20.01L146.82-16.44L141.27-16.44Q139.11-16.44 138.12-16.14Q137.13-15.84 136.47-14.97L136.47-14.97Q136.02-14.37 135.85-13.77Q135.69-13.17 135.57-11.73L135.57-11.73L146.82-11.73L146.82-8.16L135.57-8.16Q135.81-5.58 137.10-4.58Q138.39-3.57 141.48-3.57L141.48-3.57L146.82-3.57L146.82 0L141.27 0Q139.02 0 137.31-0.27L137.31-0.27Q134.61-0.72 133.02-2.64L133.02-2.64Q130.74-5.40 130.74-10.11L130.74-10.11Q130.74-15.33 133.95-18.24L133.95-18.24Q135.06-19.23 136.31-19.62Q137.55-20.01 139.65-20.01L139.65-20.01ZM157.86-7.59L154.44-7.59L154.44 0L150.18 0L150.18-20.01L159.96-20.01Q164.16-20.01 165.81-18.93L165.81-18.93Q166.95-18.21 167.56-17.02Q168.18-15.84 168.18-14.43L168.18-14.43Q168.18-11.58 166.74-10.02L166.74-10.02Q165.84-9.09 164.37-8.61L164.37-8.61Q165.54-8.19 166.14-7.72Q166.74-7.26 167.22-6.36L167.22-6.36Q167.58-5.64 167.74-4.98Q167.91-4.32 168-3.03L168-3.03Q168.18-0.87 168.48 0L168.48 0L163.71 0Q163.50-0.69 163.26-2.85L163.26-2.85Q163.11-4.59 162.64-5.52Q162.18-6.45 161.25-6.99L161.25-6.99Q160.08-7.62 157.86-7.59L157.86-7.59ZM154.44-16.44L154.44-11.16L160.41-11.16Q161.91-11.16 162.54-11.61L162.54-11.61Q163.50-12.27 163.50-13.92L163.50-13.92Q163.50-15.75 162.06-16.26L162.06-16.26Q161.55-16.44 160.41-16.44L160.41-16.44L154.44-16.44Z" transform="translate(-2.04, 20.009999999999998)"></path></g> <!----> <!----> <!----> <!----> <!----> <!----> <!----></g> <g class="tp-slogan iconsvg-slogansvg" fill="#42bdd8" transform="translate(11.449996948242188,27.010000228881836)"><!----> <!----> <!----> <g><path d="M1.69-3.14L0.23-5.11L9.80-6.28L11.72-3.56L1.69-3.14ZM23.58-5.67L21.61-3.09L22.41-1.45L23.72-0.52L21.89 1.50L20.44-1.92L18.84 0.70L17.95 1.41L19.55-5.06L17.91-3.66L17.77-4.36L15.14-3.80L13.03-3.80L12.52-4.83L15.98-5.20L18.05-4.83L19.50-9.98L20.58-7.92L22.45-8.91L23.58-5.67ZM21.33-5.34L20.58-3.80L21.09-3.14L21.94-6.28L20.44-6.80L19.69-6.19L21.33-5.34ZM16.64-2.20L16.36-1.78L18.23-1.17L17.63 0.61L16.45-0.38L15.56 1.50L13.36 0.23L14.91-0.33L14.63-1.92L13.83-1.92L14.20-0.61L12.28 0.70L13.03-1.97L12.23-3L14.20-3.42L17.63-3.38L18.47-2.48L16.64-2.20ZM16.50-8.67L18.09-8.53L18.75-7.59L16.31-7.22L16.64-6.70L17.95-6.42L17.63-5.77L14.20-5.48L13.17-5.77L12.75-6.28L14.48-6.84L14.63-7.45L12.94-7.36L12.23-8.11L14.48-8.63L15.05-9.89L16.08-9.47L16.50-8.67ZM34.83-7.36L32.86-6.47L34.41-5.39L35.72-4.88L34.64-2.63L33.89-3.66L33.52-2.34L32.81-2.11L32.34-0.75L34.78-0.94L35.44 0.84L30.98 0.75L29.30 1.03L28.31-0.19L31.08-1.13L30.75-2.11L30.05-2.11L29.25-3.89L28.78-3.94L28.13-3.75L27.84-2.63L29.30-2.63L29.63-2.11L27.98-0.94L27.70 0.56L26.77 1.41L26.11-0.75L25.08-0.23L24.23-1.97L26.48-2.58L25.97-3.38L24.56-3.66L25.17-6.42L24.28-7.78L25.73-8.16L26.63-9.98L27.70-8.30L28.73-8.77L29.11-8.39L31.64-8.91L33.47-9.47L34.83-7.36ZM25.83-4.83L26.77-5.06L26.95-6.84L26.39-6.33L25.83-4.83ZM28.31-5.34L29.11-4.73L31.55-7.31L29.81-6.84L29.30-7.13L27.98-6.80L28.31-5.34ZM29.81-3.80L30.47-3.66L33.23-4.08L32.16-5.39L29.81-3.80ZM42.89 0L46.45 0L47.72 0.98L40.73 0.89L37.31 1.13L36.23 0.23L40.88-0.05L40.59-0.33L38.39-0.33L37.69-0.80L41.02-1.17L40.50-1.55L37.55-1.45L37.45-3L36.80-4.88L44.72-4.88L46.55-5.34L36.94-5.39L36.23-5.95L45.66-6.33L44.30-6.70L37.83-6.47L36.94-9.56L39.33-9.33L47.06-9.56L45.89-6.70L46.83-6.42L47.72-5.63L46.92-5.06L46.45-3.09L46.31-1.55L43.27-1.45L42.89-1.13L45.75-1.03L46.17-0.47L43.27-0.33L42.89 0ZM39.47-7.59L39.28-7.13L44.30-7.36L44.16-7.73L39.47-7.59ZM39.56-8.39L44.34-8.30L44.34-8.91L39.56-8.63L39.56-8.39ZM40.88-4.08L38.81-4.17L38.91-3.52L40.73-3.66L40.88-4.08ZM39.28-2.86L38.95-2.20L41.16-2.25L41.11-2.86L39.28-2.86ZM45.09-4.08L42.70-4.17L42.75-3.52L44.72-3.56L45.09-4.08ZM44.67-2.91L43.08-2.77L42.84-2.25L44.72-2.25L44.67-2.91ZM49.45-1.55L48.38-2.91L49.88-5.20L48.23-5.91L51.42-9.89L51.80-9.98L50.81-6.19L51.98-5.81L50.63-3.42L51.94-3.23L50.34-1.45L51.80-1.17L52.78-6.28L51.47-8.25L53.44-8.63L57.23-9.56L59.11-7.50L57.66-6.14L59.44-4.22L56.95-2.06L59.72-0.33L57.52 1.50L55.55-0.75L52.59 1.41L54.61-1.97L53.67-2.77L52.08 0.84L51.33 1.36L51.28-0.05L48.75 1.03L49.45-1.55ZM54.47-4.08L55.88-2.72L56.81-4.31L54.47-4.08ZM56.02-5.91L56.67-7.64L54.23-6.70L54.61-5.67L56.02-5.91ZM67.92-9.98L68.86-7.73L71.63-7.92L70.55-2.72L70.17 1.36L66.84-0.05L68.95-0.94L68.86-5.95L68.06-6.19L66.89-5.39L68.58-3L66.47-1.55L66.33-4.88L65.53-4.83L65.30-2.06L65.63 0.84L63.70 0.19L61.17 0.98L60.80-4.36L60.28-7.73L61.88-7.50L63.33-9.89L63.98-7.88L65.63-7.88L65.81-5.77L67.92-9.98ZM62.48-2.72L62.39-1.17L63.94-1.31L63.84-2.86L62.48-2.72ZM62.63-4.36L63.80-4.55L64.08-6.05L62.34-6.05L62.63-4.36ZM79.41-6.19L82.27-3.52L83.72-2.58L81.89-0.19L80.81-1.45L80.34-0.61L79.22-0.61L78.33 1.13L77.53 1.41L76.64-0.33L75.47-0.52L74.53-1.31L73.17-0.61L72.23-0.52L75.42-5.91L73.31-6.28L72.42-7.45L76.59-8.11L77.25-9.98L78.75-9.19L79.13-8.25L82.31-8.25L83.11-6.80L79.41-6.19ZM76.78-4.97L75.19-1.97L77.02-2.34L76.78-4.97ZM78.98-4.97L78.70-2.25L80.34-2.11L78.98-4.97ZM91.36-0.94L93.80-0.89L94.69-3L95.72-0.05L91.13 1.22L88.31-0.23L87.98-1.64L85.88 0.75L84.28-0.94L85.31-1.69L85.59-3.94L84.89-4.17L84.38-5.53L85.55-6.05L85.97-9.98L86.81-8.63L87.19-5.91L87.84-5.67L87.98-5.91L88.31-7.88L89.63-6.66L90.23-7.08L90.75-9.98L91.88-9.19L92.44-7.64L93.61-8.44L95.48-5.95L93.52-1.69L92.44-3L92.06-1.69L91.36-0.94ZM93.38-6.66L92.30-5.67L92.16-4.08L93.23-4.22L93.38-6.66ZM86.95-3.80L87.14-2.20L88.31-1.92L87.98-3.89L87.47-4.31L86.95-3.80ZM89.67-4.45L89.67-1.17L90.75-1.55L90.38-5.20L89.67-4.45ZM107.25-6.66L106.97-5.06L107.77-4.08L106.92-3.14L106.92-1.31L105.47-0.94L104.67 1.50L102.09 0.09L103.88-0.47L103.41-1.31L102.19-1.31L101.77-2.20L103.64-2.91L103.41-3.42L102.05-3.52L101.81-4.08L101.39-1.69L101.53 1.41L98.95 0.56L100.36-0.05L99.80-0.52L98.77-0.52L97.83 0.89L96.94 1.41L97.22-1.64L97.03-4.08L96.23-5.34L98.63-5.91L98.48-6.19L97.03-6.42L96.80-6.94L98.63-7.31L98.39-7.73L96.89-7.78L96.52-8.67L98.11-8.91L99.33-10.08L100.36-9.09L102.09-8.95L101.81-8.11L100.22-7.88L99.98-7.50L101.44-7.22L101.67-6.56L100.36-6.19L100.08-5.91L101.95-5.77L102.23-4.88L97.45-4.45L98.20-4.03L101.44-4.22L101.95-4.59L103.64-4.88L103.55-5.34L102.56-5.67L102.33-6.14L101.63-6.19L103.41-9.98L104.81-8.63L107.11-8.95L106.27-7.13L107.25-6.66ZM100.08-2.72L100.22-3.38L98.39-3.14L98.53-2.77L100.08-2.72ZM98.34-1.92L98.48-1.31L100.31-1.55L100.08-2.06L98.34-1.92ZM104.20-7.88L102.98-6.70L105.05-6.80L104.95-7.31L104.20-7.88ZM105.05-3.28L104.86-2.48L105.80-2.48L105.80-3.66L105.05-3.28ZM104.95-4.73L105.80-4.83L105.94-5.53L105.09-5.67L104.95-4.73ZM117.80-5.25L119.72-4.83L117.66-3L119.63-2.63L118.55-0.38L116.06-3L117.05-3.23L113.77-5.91L112.78-5.48L115.08-4.08L114.33-3.42L115.41-2.91L114.33-1.03L112.13-3.28L113.02-3.38L112.36-4.36L110.67-3.89L112.92-0.80L115.50-0.61L116.02-2.34L117.66 0.33L111.84 1.36L110.77-1.55L109.55 0.56L108.23-1.83L110.34-2.44L110.48-3.42L108.28-3.14L111.56-6.47L109.31-6.66L108.28-7.78L112.45-8.30L113.30-9.98L114.75-9.19L115.13-8.25L118.27-8.53L119.72-6.70L115.22-6.70L117.80-5.25ZM130.31-5.39L131.58-3.38L129.61-1.83L131.63-0.47L129.89 1.41L128.53-0.61L127.13 0.61L126.61 1.50L125.39 0.56L125.63-3.52L125.16-7.73L124.73-4.17L124.73 1.50L122.20 0.38L123.47-0.33L122.95-1.78L122.34-1.83L120.56 1.55L121.03-3.66L120.66-9.56L122.20-9.05L124.88-9.61L125.53-9.05L127.08-8.81L131.25-9.38L130.31-5.39ZM122.48-3.23L123.33-3.52L123.33-4.97L122.25-4.83L122.48-3.23ZM122.48-6.56L123.47-6.47L123.56-7.73L122.34-7.88L122.48-6.56ZM129.23-6.84L128.81-7.78L126.84-7.64L127.36-6.47L129.23-6.84ZM127.13-4.69L129.33-5.34L127.08-5.81L127.13-4.69ZM126.89-2.77L126.75 0L127.69-1.78L126.89-2.77ZM127.64-3.80L128.67-2.44L129.47-4.03L127.64-3.80ZM141.89-4.97L143.77-4.83L142.78-2.58L141.94-2.34L140.53 1.41L136.64 0L139.50-0.52L139.08-1.41L137.77-1.83L135.14 0.70L133.73 1.50L134.81-1.64L133.88-2.06L133.08-2.91L135.94-3.14L137.16-4.45L138.75-3L141.66-3L137.67-4.88L132.23-2.86L136.08-5.81L134.91-6.28L132.42-4.97L136.31-9.89L137.67-8.53L140.86-8.81L142.69-6.98L139.22-5.81L141.89-4.97ZM139.41-7.50L136.59-7.22L137.81-6.28L139.41-7.50Z" transform="translate(-0.234375, 10.078125)"></path></g></g></g></g></svg>